#N canvas -132 15 1263 718 10;
#X obj 10 705 outlet;
#X obj 350 710 outlet;
#X obj 700 707 outlet;
#X obj 96 23 inlet;
#X obj 367 26 inlet;
#X obj 586 25 inlet;
#X floatatom 441 179 5 0 0 0 - - -;
#X floatatom 308 365 5 0 0 0 - - -;
#X obj 304 333 pipe 0;
#X floatatom 393 243 5 0 0 0 - - -;
#X obj 398 184 * 10;
#X floatatom 14 468 5 0 0 0 - - -;
#X obj 359 333 pipe;
#X floatatom 427 296 5 0 0 0 - - -;
#X obj 426 268 / 3;
#X text 294 310 value feedback;
#X obj 72 50 vsl 15 128 0 100 0 0 empty empty empty 0 -9 0 10 -262144
-99865 -1 0 1;
#X floatatom 21 108 5 0 0 0 - - -;
#X floatatom 93 276 7 0 0 0 - - -;
#X obj 93 254 autoscale;
#X obj 162 217 nbx 3 16 -1e+037 1e+037 0 1 empty empty max_note 40
8 0 10 -228856 -1 -1 7 256;
#X obj 102 217 nbx 3 16 -1e+037 1e+037 0 1 empty empty min 40 8 0 10
-228856 -1 -1 1 256;
#X obj 92 300 int;
#X obj -84 224 metro 400;
#X obj 55 328 * 7;
#X obj 90 328 * 14;
#X obj 133 329 * 21;
#X obj -78 256 random 3;
#X obj -50 290 hradio 15 1 0 3 empty empty empty 0 -8 0 10 -262144
-1 -1 1;
#X obj -69 335 bng 15 250 50 0 empty empty empty 17 7 0 10 -262144
-1 -1;
#X obj -41 335 bng 15 250 50 0 empty empty empty 17 7 0 10 -262144
-1 -1;
#X obj -14 335 bng 15 250 50 0 empty empty empty 17 7 0 10 -262144
-1 -1;
#X obj -69 311 select 0 1 2;
#X floatatom 54 354 5 0 0 0 - - -;
#X floatatom 92 355 5 0 0 0 - - -;
#X floatatom 131 355 5 0 0 0 - - -;
#X floatatom 44 291 5 0 0 0 - - -;
#X obj -26 396 int;
#X floatatom -27 418 5 0 0 0 - - -;
#X obj 11 395 int;
#X floatatom 10 417 5 0 0 0 - - -;
#X obj 49 395 int;
#X floatatom 48 417 5 0 0 0 - - -;
#X obj 18 622 autoscale 0 100;
#X floatatom 139 669 5 0 0 0 - - -;
#X obj 175 577 * 21;
#X obj 46 578 nbx 3 16 -1e+037 1e+037 0 1 empty empty min 40 8 0 10
-228856 -1 -1 0 256;
#X text 397 710 eco;
#X text 56 708 AutoScaled Value Dinamic form max_note;
#X obj -99 165 loadbang;
#X obj 355 626 autoscale 0 100;
#X obj 361 587 nbx 3 16 -1e+037 1e+037 0 1 empty empty min 40 8 0 10
-228856 -1 -1 0 256;
#X obj -94 197 tgl 15 0 empty empty empty 17 7 0 10 -262144 -1 -1 1
1;
#X obj 644 180 tgl 15 0 empty empty empty 17 7 0 10 -262144 -1 -1 0
1;
#X floatatom 658 326 5 0 0 0 - - -;
#X floatatom 644 244 5 0 0 0 - - -;
#X floatatom 598 246 5 0 0 0 - - -;
#X obj 618 213 bng 15 250 50 0 empty empty empty 17 7 0 10 -262144
-1 -1;
#X obj 658 300 *;
#X obj 643 147 metro 400;
#X obj 643 114 loadbang;
#X floatatom 663 635 5 0 0 0 - - -;
#X connect 3 0 16 0;
#X connect 4 0 10 0;
#X connect 4 0 6 0;
#X connect 5 0 56 0;
#X connect 7 0 50 0;
#X connect 8 0 7 0;
#X connect 8 0 12 0;
#X connect 9 0 14 0;
#X connect 10 0 9 0;
#X connect 10 0 8 1;
#X connect 11 0 43 0;
#X connect 13 0 12 1;
#X connect 14 0 13 0;
#X connect 16 0 17 0;
#X connect 16 0 19 0;
#X connect 18 0 22 0;
#X connect 19 0 18 0;
#X connect 20 0 19 2;
#X connect 20 0 45 0;
#X connect 21 0 19 1;
#X connect 22 0 25 0;
#X connect 22 0 26 0;
#X connect 22 0 36 0;
#X connect 22 0 24 0;
#X connect 23 0 27 0;
#X connect 24 0 33 0;
#X connect 25 0 34 0;
#X connect 26 0 35 0;
#X connect 27 0 28 0;
#X connect 27 0 32 0;
#X connect 29 0 37 0;
#X connect 30 0 39 0;
#X connect 31 0 41 0;
#X connect 32 0 29 0;
#X connect 32 1 30 0;
#X connect 32 2 31 0;
#X connect 33 0 37 1;
#X connect 34 0 39 1;
#X connect 35 0 41 1;
#X connect 37 0 38 0;
#X connect 38 0 11 0;
#X connect 39 0 40 0;
#X connect 40 0 11 0;
#X connect 41 0 42 0;
#X connect 42 0 11 0;
#X connect 43 0 0 0;
#X connect 43 0 44 0;
#X connect 44 0 8 0;
#X connect 45 0 43 2;
#X connect 46 0 43 1;
#X connect 49 0 52 0;
#X connect 50 0 1 0;
#X connect 51 0 50 1;
#X connect 52 0 23 0;
#X connect 53 0 57 0;
#X connect 53 0 55 0;
#X connect 54 0 61 0;
#X connect 55 0 58 0;
#X connect 56 0 58 1;
#X connect 57 0 56 0;
#X connect 58 0 54 0;
#X connect 59 0 53 0;
#X connect 60 0 59 0;
#X connect 61 0 2 0;
