#N canvas 108 119 1102 540 10;
#X obj 216 19 inlet;
#X obj 552 17 inlet;
#X obj 932 13 inlet;
#X floatatom 75 316 5 0 0 0 - - -;
#X floatatom 126 80 5 0 0 0 - - -;
#X obj 75 82 tgl 15 0 empty empty empty 17 7 0 10 -262144 -1 -1 1 1
;
#X floatatom 216 170 5 0 0 0 - - -;
#X obj 216 111 mtof;
#X obj 75 142 f;
#X obj 111 142 + 1;
#X floatatom 75 170 5 0 0 0 - - -;
#X msg 29 142 1;
#X obj 216 81 expr 128*($f1/100);
#X obj 75 393 outlet;
#X obj 983 351 outlet;
#X obj 411 333 outlet;
#X obj 411 149 f;
#X obj 411 82 tgl 15 0 empty empty empty 17 7 0 10 -262144 -1 -1 1
1;
#X obj 414 292 hsl 128 15 0 100 0 0 empty empty empty -2 -8 0 10 -262144
-1 -1 152 1;
#X msg 365 149 -1;
#X msg 478 149 1;
#X obj 439 149 + 1;
#X obj 411 111 metro 100;
#X obj 365 112 sel 4;
#X obj 478 111 sel -4;
#X obj 75 287 expr (pow(2 \, $f1)/2)*$f2;
#X obj 75 341 ftom;
#X obj 75 366 expr 100*($f1/(128));
#X obj 75 206 sel 1 2 3;
#X floatatom 126 228 5 0 0 0 - - -;
#X msg 75 231 1;
#X msg 92 241 2;
#X msg 109 253 3;
#X obj 30 82 change;
#X obj 75 51 loadbang;
#X obj 411 56 loadbang;
#X obj 29 111 sel 10;
#X obj 75 111 metro 200;
#X obj 216 142 / 2;
#X obj 411 224 line;
#X obj 452 171 t b b;
#X obj 411 193 f;
#X floatatom 411 171 5 0 0 0 - - -;
#X msg 479 192 50;
#X obj 411 266 expr $f1+(5+($f2*10)/10);
#X obj 932 59 moses 101;
#X obj 799 85 tgl 15 0 empty empty empty 17 7 0 10 -262144 -1 -1 1
1;
#X obj 799 59 loadbang;
#X obj 799 157 f;
#X obj 835 157 + 1;
#X obj 756 157 sel 8;
#X floatatom 812 197 5 0 0 0 - - -;
#X obj 799 125 metro 400;
#X msg 755 125 0;
#X obj 750 244 sel 1 2 3 4 5 6 7 8;
#X floatatom 759 366 5 0 0 0 - - -;
#X obj 750 316 *;
#X msg 750 276 1;
#X obj 760 77 bng 15 250 50 0 empty empty empty 17 7 0 10 -262144 -1
-1;
#X msg 780 275 1;
#X obj 780 326 + 4;
#X obj 780 300 *;
#X msg 810 275 1;
#X obj 810 300 *;
#X msg 841 275 1;
#X obj 841 300 *;
#X msg 872 275 1;
#X obj 872 300 *;
#X obj 759 396 expr 100*$f1/128;
#X obj 661 268 + 12;
#X obj 810 326 + 10;
#X obj 872 326 + 8;
#X obj 841 326 + 9;
#X connect 0 0 12 0;
#X connect 1 0 44 1;
#X connect 2 0 45 0;
#X connect 3 0 26 0;
#X connect 4 0 37 1;
#X connect 5 0 37 0;
#X connect 6 0 25 1;
#X connect 6 0 33 0;
#X connect 7 0 38 0;
#X connect 8 0 9 0;
#X connect 8 0 10 0;
#X connect 8 0 36 0;
#X connect 9 0 8 1;
#X connect 10 0 28 0;
#X connect 11 0 8 0;
#X connect 12 0 7 0;
#X connect 12 0 69 0;
#X connect 16 0 21 0;
#X connect 16 0 23 0;
#X connect 16 0 24 0;
#X connect 16 0 42 0;
#X connect 17 0 22 0;
#X connect 18 0 15 0;
#X connect 19 0 21 1;
#X connect 20 0 21 1;
#X connect 21 0 16 1;
#X connect 22 0 16 0;
#X connect 23 0 19 0;
#X connect 24 0 20 0;
#X connect 25 0 3 0;
#X connect 26 0 27 0;
#X connect 27 0 13 0;
#X connect 28 0 30 0;
#X connect 28 1 31 0;
#X connect 28 2 32 0;
#X connect 28 3 29 0;
#X connect 30 0 25 0;
#X connect 31 0 25 0;
#X connect 32 0 25 0;
#X connect 33 0 37 0;
#X connect 34 0 5 0;
#X connect 35 0 17 0;
#X connect 36 0 11 0;
#X connect 37 0 8 0;
#X connect 38 0 6 0;
#X connect 39 0 44 0;
#X connect 40 0 41 0;
#X connect 40 1 43 0;
#X connect 41 0 39 0;
#X connect 42 0 41 1;
#X connect 42 0 40 0;
#X connect 43 0 39 1;
#X connect 44 0 18 0;
#X connect 45 0 52 1;
#X connect 45 1 14 0;
#X connect 46 0 52 0;
#X connect 47 0 46 0;
#X connect 48 0 49 0;
#X connect 48 0 50 0;
#X connect 48 0 51 0;
#X connect 48 0 54 0;
#X connect 49 0 48 1;
#X connect 50 0 53 0;
#X connect 52 0 48 0;
#X connect 53 0 48 0;
#X connect 54 0 57 0;
#X connect 54 2 59 0;
#X connect 54 3 62 0;
#X connect 54 5 64 0;
#X connect 54 7 66 0;
#X connect 55 0 68 0;
#X connect 56 0 55 0;
#X connect 57 0 56 0;
#X connect 58 0 48 0;
#X connect 59 0 61 0;
#X connect 60 0 55 0;
#X connect 61 0 60 0;
#X connect 62 0 63 0;
#X connect 63 0 70 0;
#X connect 64 0 65 0;
#X connect 65 0 72 0;
#X connect 66 0 67 0;
#X connect 67 0 71 0;
#X connect 68 0 14 0;
#X connect 69 0 56 1;
#X connect 69 0 61 1;
#X connect 69 0 63 1;
#X connect 69 0 65 1;
#X connect 69 0 67 1;
#X connect 70 0 55 0;
#X connect 71 0 55 0;
#X connect 72 0 55 0;
