#N canvas 636 70 1280 727 10;
#X obj 78 32 inlet;
#X obj 146 33 inlet;
#X obj 220 32 inlet;
#X floatatom 85 124 5 0 0 0 - - -;
#X floatatom 147 126 5 0 0 0 - - -;
#X floatatom 223 125 5 0 0 0 - - -;
#X text 262 28 <-- Numbers in here 0-100;
#X obj 159 186 pack i i i;
#X obj 378 293 print;
#X obj 666 393 cnv 15 400 180 empty empty connection 20 12 0 14 -233017
-66577 0;
#X obj 667 326 cnv 15 400 60 empty empty packing 20 12 0 14 -204800
-66577 0;
#X obj 674 349 mrpeach/packOSC;
#X obj 685 522 mrpeach/udpsend;
#X msg 726 478 disconnect;
#X msg 707 434 connect localhost 12000;
#X msg 276 254 /test/ \$1 \$2 \$3;
#X obj 102 188 bng 15 250 50 0 empty empty empty 17 7 0 10 -262144
-1 -1;
#X connect 0 0 3 0;
#X connect 1 0 4 0;
#X connect 2 0 5 0;
#X connect 3 0 7 0;
#X connect 3 0 16 0;
#X connect 4 0 7 1;
#X connect 4 0 16 0;
#X connect 5 0 7 2;
#X connect 5 0 16 0;
#X connect 7 0 15 0;
#X connect 11 0 12 0;
#X connect 13 0 12 0;
#X connect 14 0 12 0;
#X connect 15 0 8 0;
#X connect 15 0 11 0;
#X connect 16 0 7 0;
