#N canvas 119 248 811 572 10;
#X obj 146 379 outlet;
#X obj 267 373 outlet;
#X obj 443 355 outlet;
#X obj 96 23 inlet;
#X obj 267 25 inlet;
#X obj 442 23 inlet;
#X text 487 21 <-- Numbers in here 0-100;
#X text 496 358 <-- Numbers in here 0-100;
#X floatatom 224 177 5 0 0 0 - - -;
#X floatatom 478 123 5 0 0 0 - - -;
#X obj 90 250 counter;
#X floatatom 85 306 5 0 0 0 - - -;
#X obj 14 153 metro \$1;
#X obj 439 273 / 2;
#X text 90 162 change direction;
#X text 224 157 delay in ms;
#X obj 439 211 +;
#X obj 363 175 pipe;
#X msg 164 192 100;
#X floatatom 302 325 5 0 0 0 - - -;
#X obj 261 283 random 100;
#X obj 26 31 loadbang;
#X text -34 53 comment;
#X obj 83 178 < 50;
#X obj 116 74 abs;
#X obj 117 50 maxlib/scale 0 100 -50 50;
#X obj 116 99 maxlib/scale 0 50 1000 10 1;
#X connect 3 0 23 0;
#X connect 3 0 25 0;
#X connect 4 0 20 1;
#X connect 4 0 17 1;
#X connect 5 0 9 0;
#X connect 5 0 17 0;
#X connect 9 0 16 1;
#X connect 10 0 11 0;
#X connect 11 0 0 0;
#X connect 12 0 10 0;
#X connect 12 0 20 0;
#X connect 13 0 2 0;
#X connect 16 0 13 0;
#X connect 17 0 16 0;
#X connect 18 0 10 4;
#X connect 20 0 1 0;
#X connect 20 0 19 0;
#X connect 21 0 12 0;
#X connect 21 0 18 0;
#X connect 23 0 10 1;
#X connect 24 0 26 0;
#X connect 25 0 24 0;
#X connect 26 0 8 0;
#X connect 26 0 12 1;
