#N canvas 714 151 450 300 10;
#X text 58 105 This abstraction represents input;
#X obj 299 106 RTI_Input;
#X text 59 209 This abstraction represents output;
#X text 58 158 This abstraction represents logic;
#X obj 298 158 RTI_Logic;
#X obj 298 206 RTI_Output;
#X connect 1 0 4 0;
#X connect 1 1 4 1;
#X connect 1 2 4 2;
#X connect 4 0 5 0;
#X connect 4 1 5 1;
#X connect 4 2 5 2;
