#N canvas 574 21 846 696 10;
#X obj 408 714 outlet;
#X obj 634 722 outlet;
#X obj 805 723 outlet;
#X obj 414 575 vsl 15 128 0 100 0 0 empty empty empty 0 -9 0 10 -262144
-1 -1 0 1;
#X obj 634 577 vsl 15 128 0 100 0 0 empty empty empty 0 -9 0 10 -262144
-1 -1 12700 1;
#X obj 78 15 mrpeach/udpreceive 7110;
#X obj 78 57 mrpeach/unpackOSC;
#X obj 78 96 mrpeach/routeOSC /joint;
#X obj 24 181 route r_shoulder r_elbow r_hand;
#X obj 206 215 route l_shoulder l_elbow l_hand;
#X obj 391 245 route r_hip r_knee r_ankle r_foot;
#X obj 45 123 route head neck torso;
#X obj 586 276 route l_hip l_knee l_ankle l_foot;
#X obj 809 576 vsl 15 128 0 100 0 0 empty empty empty 0 -9 0 10 -262144
-1 -1 3900 1;
#X obj 144 539 maxlib/scale 0.01 0.75 0 100;
#X floatatom 439 305 5 0 0 0 - - -;
#X floatatom 466 343 5 0 0 0 - - -;
#X obj 439 277 unpack f f f f;
#X floatatom 492 373 5 0 0 0 - - -;
#X floatatom 522 460 5 0 0 0 - - -;
#N canvas 167 335 1009 317 distance 0;
#X obj 87 49 inlet;
#X obj 198 48 inlet;
#X obj 87 77 unpack f f f;
#X obj 84 154 expr sqrt($f1*$f1+$f2*$f2+$f3*$f3);
#X obj 121 116 -;
#X obj 149 117 -;
#X obj 174 116 -;
#X obj 198 75 unpack f f f;
#X obj 96 204 outlet;
#X connect 0 0 2 0;
#X connect 1 0 7 0;
#X connect 2 0 4 1;
#X connect 2 1 5 1;
#X connect 2 2 6 1;
#X connect 3 0 8 0;
#X connect 4 0 3 0;
#X connect 5 0 3 1;
#X connect 6 0 3 2;
#X connect 7 0 4 0;
#X connect 7 1 5 0;
#X connect 7 2 6 0;
#X restore 146 292 pd distance;
#X floatatom 144 340 5 0 0 0 - - -;
#X obj 219 410 tgl 100 0 empty empty empty 17 7 0 10 -262144 -1 -1
0 1;
#X obj 217 366 < 0.05;
#X text 570 304 USER;
#X text 573 342 X - axis;
#X text 572 373 Y - axis;
#X text 575 458 Z - axis;
#X floatatom 721 343 5 0 0 0 - - -;
#X floatatom 748 381 5 0 0 0 - - -;
#X obj 721 315 unpack f f f f;
#X floatatom 774 411 5 0 0 0 - - -;
#X floatatom 804 498 5 0 0 0 - - -;
#X text 852 342 USER;
#X text 855 380 X - axis;
#X text 854 411 Y - axis;
#X text 857 496 Z - axis;
#X floatatom 637 447 5 0 0 0 - - -;
#X obj 639 478 maxlib/scale 0.3 0.8 100 0;
#X obj 637 420 min;
#X text 241 387 debug clap;
#X text 1124 -16 comment;
#X obj 64 542 adc~;
#X obj 63 575 fiddle~;
#X floatatom 62 602 5 0 0 0 - - -;
#X msg 607 107 \; pd dsp \$1;
#X obj 607 86 tgl 15 0 empty empty empty 17 7 0 10 -262144 -1 -1 1
1;
#X obj 607 39 loadbang;
#X msg 607 62 1;
#X obj 62 634 maxlib/scale 80 105 0 100;
#X text 63 159 comment;
#X connect 3 0 0 0;
#X connect 4 0 1 0;
#X connect 5 0 6 0;
#X connect 6 0 7 0;
#X connect 7 0 11 0;
#X connect 8 2 20 0;
#X connect 8 3 9 0;
#X connect 9 2 20 1;
#X connect 9 3 10 0;
#X connect 10 1 17 0;
#X connect 10 4 12 0;
#X connect 11 3 8 0;
#X connect 12 1 30 0;
#X connect 13 0 2 0;
#X connect 14 0 13 0;
#X connect 17 0 15 0;
#X connect 17 1 16 0;
#X connect 17 2 18 0;
#X connect 17 3 19 0;
#X connect 18 0 39 0;
#X connect 20 0 21 0;
#X connect 21 0 23 0;
#X connect 21 0 14 0;
#X connect 23 0 22 0;
#X connect 30 0 28 0;
#X connect 30 1 29 0;
#X connect 30 2 31 0;
#X connect 30 3 32 0;
#X connect 31 0 39 1;
#X connect 37 0 38 0;
#X connect 38 0 4 0;
#X connect 39 0 37 0;
#X connect 42 0 43 0;
#X connect 43 0 44 0;
#X connect 44 0 49 0;
#X connect 46 0 45 0;
#X connect 47 0 48 0;
#X connect 48 0 46 0;
#X connect 49 0 3 0;
